<svg id="visual" viewBox="0 0 960 540" width="960" height="540" xmlns="http://www.w3.org/2000/svg"
     xmlns:xlink="http://www.w3.org/1999/xlink" version="1.1">
    <rect x="0" y="0" width="960" height="540" fill="#0066ff"></rect>
    <path d="M0 355L40 376.8C80 398.7 160 442.3 240 438.3C320 434.3 400 382.7 480 358.8C560 335 640 339 720 353.2C800 367.3 880 391.7 920 403.8L960 416L960 541L920 541C880 541 800 541 720 541C640 541 560 541 480 541C400 541 320 541 240 541C160 541 80 541 40 541L0 541Z"
          fill="#113" stroke-linecap="round" stroke-linejoin="miter"></path>
</svg>