<svg xmlns="http://www.w3.org/2000/svg" version="1.1" xmlns:xlink="http://www.w3.org/1999/xlink"
     xmlns:svgjs="http://svgjs.dev/svgjs" viewBox="0 0 800 400">
    <path d="M396.8609924316406,0.8968609571456909C397.6307996622721,3.976083842714628,399.34381388346355,12.059791457056999,401.3453063964844,18.834081649780273C403.3467989095052,25.608371842503548,406.82660354614256,32.35276602745056,408.5201721191406,40.35874557495117C410.2137406921387,48.36472512245178,411.51867309570315,56.69507122675578,411.21075439453125,65.47085571289062C410.90283569335935,74.24664019902548,408.5740041097005,82.24215312957763,406.7264709472656,91.47982025146484C404.8789377848307,100.71748737335206,401.52615646362307,109.89087975819905,400.44842529296875,119.28250885009766C399.37069412231443,128.67413794199626,398.2929681905111,137.72047672271728,400.44842529296875,146.18833923339844C402.6038823954264,154.6562017440796,409.6173384602865,161.06576604207356,413.0044860839844,168.60986328125C416.3916337076823,176.15396052042644,419.5635396830241,180.89686831156413,420.17938232421875,190.13453674316406C420.7952249654134,199.372205174764,419.5171832784017,212.10612968444823,416.5919189453125,222.42152404785156C413.6666546122233,232.7369184112549,408.0657644144694,242.3721940867106,403.1390075683594,250.22421264648438C398.21225072224934,258.0762312062581,392.51119740804035,262.3109145609538,387.8923645019531,268.16143798828125C383.2735315958659,274.0119614156087,378.54260126749676,276.76083440144856,376.2331848144531,284.304931640625C373.9237683614095,291.84902887980144,374.13152918497724,304.56353825887044,374.439453125,312.1076354980469C374.74737706502276,319.6517327372233,374.63976888020835,322.7085296630859,378.02691650390625,328.2511291503906C381.41406412760415,333.7937286376953,390.3213844807943,339.77578989664715,394.17041015625,344.3946228027344C398.0194358317057,349.0134557088216,399.52465871175133,346.3811693827311,400.44842529296875,355.1569519042969C401.37219187418617,363.93273442586263,399.7055340576172,388.5874366760254,399.55157470703125,395.51568603515625"
          fill="none" stroke-width="18" stroke="url(&quot;#SvgjsLinearGradient1003&quot;)" stroke-linecap="round"
          transform="matrix(1.05,0,0,1.05,-17.159892272949264,-8.11659261584282)" stroke-dasharray="66 36"
          stroke-opacity="0.72"></path>
    <defs>
        <linearGradient id="SvgjsLinearGradient1003" gradientTransform="rotate(91, 0.5, 0.5)">
            <stop stop-color="hsl(37, 99%, 67%)" offset="0"></stop>
            <stop stop-color="hsl(316, 73%, 52%)" offset="1"></stop>
        </linearGradient>
    </defs>
</svg>